<svg viewBox="0 0 136 30" xmlns="http://www.w3.org/2000/svg">
    <style>
        .icon-group.hover { opacity: 0; }
    </style>
    <g class="icon-group default">
        <path
            d="M20.9988 26.1256C27.1452 22.5765 29.5822 15.0694 26.9494 8.68196H18.9687C20.3902 10.0106 21.2788 11.9024 21.2788 14.0017C21.2788 15.3733 20.8995 16.6563 20.2401 17.7515L14.3239 28C16.5973 27.9494 18.8906 27.3429 20.9988 26.1256Z"
            fill="#FFFFFF" />
        <path
            d="M1.87767 21.0014C4.13233 24.9071 7.9846 27.3152 12.1323 27.8766L16.1207 20.9676C15.4497 21.1717 14.7377 21.2814 14 21.2814C11.2589 21.2814 8.87177 19.7661 7.63029 17.5274L1.71696 7.28389C-0.543434 11.4272 -0.654647 16.6148 1.87767 21.0014Z"
            fill="#FFFFFF" />
        <path
            d="M25.9564 6.72204C22.0165 0.242895 13.602 -1.93354 7.00117 1.8779C5.37038 2.81955 4.00073 4.03983 2.91761 5.44391L6.90795 12.3562C7.6537 9.12833 10.5459 6.72204 14 6.72204H25.9564Z"
            fill="#FFFFFF" />
        <path
            d="M14 8.68196C11.0623 8.68196 8.68089 11.0637 8.68089 14.0017C8.68089 14.9372 8.92233 15.8163 9.34629 16.5801L9.39339 16.6617C10.3132 18.2515 12.0314 19.3215 14 19.3215C15.9354 19.3215 17.6294 18.2877 18.56 16.7421L18.6065 16.6616C19.0592 15.879 19.3191 14.9709 19.3191 14.0017C19.3191 11.0637 16.9377 8.68196 14 8.68196Z"
            fill="#FFFFFF" />
        <path d="M46.836 25H44.084V2.6H46.836V25Z" fill="#FFFFFF" />
        <path
            d="M53.7027 25H51.0467V8.264H53.7027V11.176L54.0867 11.304C55.3027 9.512 57.3507 7.944 60.7427 7.944C65.2867 7.944 67.8467 10.408 67.8467 14.632V25H65.1907V15.304C65.1907 11.976 63.2707 10.344 59.8787 10.344C57.1267 10.344 55.3347 11.656 53.7027 13.512V25Z"
            fill="#FFFFFF" />
        <path
            d="M78.5197 25.32C74.8717 25.32 72.4077 24.232 70.5517 22.6L71.7997 20.84C73.2397 22.216 75.4157 23.208 78.3917 23.208C81.2717 23.208 83.0637 22.248 83.0637 20.36C83.0637 18.696 81.7837 17.928 79.1917 17.64L76.5997 17.32C73.0157 16.904 71.3517 15.24 71.3517 12.84C71.3517 9.896 73.6877 7.944 77.7197 7.944C80.5357 7.944 83.1597 8.68 85.3357 10.504L83.9917 12.232C82.1037 10.632 79.8637 10.056 77.8157 10.056C75.6717 10.056 74.0077 10.888 74.0077 12.616C74.0077 13.8 74.7117 14.792 77.2717 15.112L80.2797 15.496C83.6397 15.944 85.7837 17.096 85.7837 20.072C85.7837 23.272 83.0637 25.32 78.5197 25.32Z"
            fill="#FFFFFF" />
        <path
            d="M96.988 22.92C98.204 22.92 99.452 22.6 100.444 22.152V24.648C99.388 25.096 97.788 25.32 96.796 25.32C92.636 25.32 90.364 23.432 90.364 19.368V10.536H87.164V8.264H90.364V4.136H92.988V8.264H100.092V10.536H92.988V18.984C92.988 21.96 94.524 22.92 96.988 22.92Z"
            fill="#FFFFFF" />
        <path
            d="M109.025 25.32C105.121 25.32 102.497 23.368 102.497 20.296C102.497 16.68 105.217 15.176 109.793 15.176H116.417V14.536C116.353 11.656 114.625 10.056 111.105 10.056C108.289 10.056 106.209 11.112 104.193 12.584L103.105 10.792C105.373 9.032 108.03 7.816 111.486 7.816C115.521 7.816 118.945 9.64 118.945 14.952V25H116.417V22.632L116.001 22.536C114.497 24.072 112.001 25.32 109.025 25.32ZM109.441 23.304C112.417 23.304 115.009 21.864 116.417 20.392V17.128H109.857C106.241 17.128 105.089 18.504 105.089 20.296C105.089 22.088 106.657 23.304 109.441 23.304Z"
            fill="#FFFFFF" />
        <path d="M125.645 25H123.021V2.28H125.645V25Z" fill="#FFFFFF" />
        <path d="M132.676 25H130.052V2.28H132.676V25Z" fill="#FFFFFF" />
    </g>

    <g class="icon-group hover">
        <path
            d="M20.9988 26.1256C27.1452 22.5765 29.5822 15.0694 26.9494 8.68196H18.9687C20.3902 10.0106 21.2788 11.9024 21.2788 14.0017C21.2788 15.3733 20.8995 16.6563 20.2401 17.7515L14.3239 28C16.5973 27.9494 18.8906 27.3429 20.9988 26.1256Z"
            fill="url(#paint7_linear_157_7)" />
        <path
            d="M1.87767 21.0014C4.13233 24.9071 7.9846 27.3152 12.1323 27.8766L16.1207 20.9676C15.4497 21.1717 14.7377 21.2814 14 21.2814C11.2589 21.2814 8.87177 19.7661 7.63029 17.5274L1.71696 7.28389C-0.543434 11.4272 -0.654647 16.6148 1.87767 21.0014Z"
            fill="url(#paint8_linear_157_7)" />
        <path
            d="M25.9564 6.72204C22.0165 0.242895 13.602 -1.93354 7.00117 1.8779C5.37038 2.81955 4.00073 4.03983 2.91761 5.44391L6.90795 12.3562C7.6537 9.12833 10.5459 6.72204 14 6.72204H25.9564Z"
            fill="url(#paint9_linear_157_7)" />
        <path
            d="M14 8.68196C11.0623 8.68196 8.68089 11.0637 8.68089 14.0017C8.68089 14.9372 8.92233 15.8163 9.34629 16.5801L9.39339 16.6617C10.3132 18.2515 12.0314 19.3215 14 19.3215C15.9354 19.3215 17.6294 18.2877 18.56 16.7421L18.6065 16.6616C19.0592 15.879 19.3191 14.9709 19.3191 14.0017C19.3191 11.0637 16.9377 8.68196 14 8.68196Z"
            fill="url(#paint10_linear_157_7)" />
        <path d="M45.1388 25H41.3628V2.6H45.1388V25Z" fill="url(#paint0_linear_157_7)" />
        <path
            d="M52.7853 25H49.1693V8.136H52.7853V10.856L53.2653 11.016C54.3533 9.256 56.2413 7.816 60.7427 7.816C65.2867 7.816 67.8467 10.408 67.8467 14.632V25H63.1533V15.56C63.1533 12.68 61.5853 11.08 58.3533 11.08C55.8253 11.08 54.1933 12.264 52.7853 13.8V25Z"
            fill="url(#paint1_linear_157_7)" />
        <path
            d="M77.7152 25.32C73.9072 25.32 71.3152 24.296 69.2992 22.696L70.9632 20.296C72.4352 21.576 74.7073 22.504 77.5233 22.504C80.1793 22.504 81.6513 21.736 81.6513 20.2C81.6513 18.856 80.5632 18.248 78.2272 17.992L75.7952 17.704C71.9232 17.224 70.1633 15.528 70.1633 12.968C70.1633 9.832 72.5952 7.816 76.8512 7.816C79.6352 7.816 82.4832 8.488 84.8512 10.248L83.1233 12.616C81.0433 11.08 78.8032 10.632 76.9792 10.632C75.0912 10.632 73.7793 11.304 73.7793 12.648C73.7793 13.608 74.4192 14.376 76.6592 14.696L79.7952 15.08C83.1552 15.528 85.3633 16.68 85.3633 19.784C85.3633 23.336 82.3872 25.32 77.7152 25.32Z"
            fill="url(#paint2_linear_157_7)" />
        <path
            d="M97.0973 22.056C98.3773 22.056 99.5932 21.736 100.617 21.32V24.68C99.5612 25.096 97.8332 25.32 96.8412 25.32C92.2332 25.32 89.7373 23.432 89.7373 19.368V10.536H86.5372V8.264H89.7373V4.136H93.3532V8.264H100.092V10.536H93.3532V18.984C93.3532 21.96 94.524 22.92 96.988 22.92Z"
            fill="url(#paint3_linear_157_7)" />
        <path
            d="M109.149 25.32C105.117 25.32 102.558 23.208 102.558 20.168C102.558 16.488 105.374 14.952 110.142 14.952H116.35V14.568C116.222 11.944 114.654 10.632 111.486 10.632C108.958 10.632 106.781 11.464 104.509 12.904L103.133 10.44C105.373 9.032 108.03 7.816 111.486 7.816C116.062 7.816 119.806 9.64 119.806 15.144V25H116.417V22.632L116.001 22.536C114.497 24.072 112.001 25.32 109.025 25.32ZM109.789 22.632C112.477 22.632 114.974 21.32 116.35 19.88V17.608H110.142C107.102 17.608 106.109 18.664 106.109 20.136C106.109 21.672 107.389 22.632 109.789 22.632Z"
            fill="url(#paint4_linear_157_7)" />
        <path d="M127.195 25H123.578V2.28H127.195V25Z" fill="url(#paint5_linear_157_7)" />
        <path d="M134.851 25H131.235V2.28H134.851V25Z" fill="url(#paint6_linear_157_7)" />
        <defs>
            <linearGradient id="paint0_linear_157_7" x1="0" y1="0" x2="57.0362" y2="82.0753"
                gradientUnits="userSpaceOnUse">
                <stop stop-color="#450F0F" />
                <stop offset="0.205" stop-color="#482610" />
                <stop offset="0.47" stop-color="#473F11" />
                <stop offset="0.73" stop-color="#124A4A" />
                <stop offset="1" stop-color="#341247" />
            </linearGradient>
            <linearGradient id="paint1_linear_157_7" x1="0" y1="0" x2="57.0362" y2="82.0753"
                gradientUnits="userSpaceOnUse">
                <stop stop-color="#450F0F" />
                <stop offset="0.205" stop-color="#482610" />
                <stop offset="0.47" stop-color="#473F11" />
                <stop offset="0.73" stop-color="#124A4A" />
                <stop offset="1" stop-color="#341247" />
            </linearGradient>
            <linearGradient id="paint2_linear_157_7" x1="0" y1="0" x2="57.0362" y2="82.0753"
                gradientUnits="userSpaceOnUse">
                <stop stop-color="#450F0F" />
                <stop offset="0.205" stop-color="#482610" />
                <stop offset="0.47" stop-color="#473F11" />
                <stop offset="0.73" stop-color="#124A4A" />
                <stop offset="1" stop-color="#341247" />
            </linearGradient>
            <linearGradient id="paint3_linear_157_7" x1="0" y1="0" x2="57.0362" y2="82.0753"
                gradientUnits="userSpaceOnUse">
                <stop stop-color="#450F0F" />
                <stop offset="0.205" stop-color="#482610" />
                <stop offset="0.47" stop-color="#473F11" />
                <stop offset="0.73" stop-color="#124A4A" />
                <stop offset="1" stop-color="#341247" />
            </linearGradient>
            <linearGradient id="paint4_linear_157_7" x1="0" y1="0" x2="57.0362" y2="82.0753"
                gradientUnits="userSpaceOnUse">
                <stop stop-color="#450F0F" />
                <stop offset="0.205" stop-color="#482610" />
                <stop offset="0.47" stop-color="#473F11" />
                <stop offset="0.73" stop-color="#124A4A" />
                <stop offset="1" stop-color="#341247" />
            </linearGradient>
            <linearGradient id="paint5_linear_157_7" x1="0" y1="0" x2="57.0362" y2="82.0753"
                gradientUnits="userSpaceOnUse">
                <stop stop-color="#450F0F" />
                <stop offset="0.205" stop-color="#482610" />
                <stop offset="0.47" stop-color="#473F11" />
                <stop offset="0.73" stop-color="#124A4A" />
                <stop offset="1" stop-color="#341247" />
            </linearGradient>
            <linearGradient id="paint6_linear_157_7" x1="0" y1="0" x2="57.0362" y2="82.0753"
                gradientUnits="userSpaceOnUse">
                <stop stop-color="#450F0F" />
                <stop offset="0.205" stop-color="#482610" />
                <stop offset="0.47" stop-color="#473F11" />
                <stop offset="0.73" stop-color="#124A4A" />
                <stop offset="1" stop-color="#341247" />
            </linearGradient>
            <linearGradient id="paint7_linear_157_7" x1="0" y1="0" x2="57.0362" y2="82.0753"
                gradientUnits="userSpaceOnUse">
                <stop stop-color="#450F0F" />
                <stop offset="0.205" stop-color="#482610" />
                <stop offset="0.47" stop-color="#473F11" />
                <stop offset="0.73" stop-color="#124A4A" />
                <stop offset="1" stop-color="#341247" />
            </linearGradient>
            <linearGradient id="paint8_linear_157_7" x1="0" y1="0" x2="57.0362" y2="82.0753"
                gradientUnits="userSpaceOnUse">
                <stop stop-color="#450F0F" />
                <stop offset="0.205" stop-color="#482610" />
                <stop offset="0.47" stop-color="#473F11" />
                <stop offset="0.73" stop-color="#124A4A" />
                <stop offset="1" stop-color="#341247" />
            </linearGradient>
            <linearGradient id="paint9_linear_157_7" x1="0" y1="0" x2="57.0362" y2="82.0753"
                gradientUnits="userSpaceOnUse">
                <stop stop-color="#450F0F" />
                <stop offset="0.205" stop-color="#482610" />
                <stop offset="0.47" stop-color="#473F11" />
                <stop offset="0.73" stop-color="#124A4A" />
                <stop offset="1" stop-color="#341247" />
            </linearGradient>
            <linearGradient id="paint10_linear_157_7" x1="0" y1="0" x2="57.0362" y2="82.0753"
                gradientUnits="userSpaceOnUse">
                <stop stop-color="#450F0F" />
                <stop offset="0.205" stop-color="#482610" />
                <stop offset="0.47" stop-color="#473F11" />
                <stop offset="0.73" stop-color="#124A4A" />
                <stop offset="1" stop-color="#341247" />
            </linearGradient>
        </defs>
    </g>
</svg>